# xmcd CD database file
#
# Track frame offsets:
#	150
#	14420
#	40767
#	66237
#	80495
#	100630
#	122737
#	146692
#	178682
#	206335
#	232097
#	250250
#
# Disc length: 3590 seconds
#
# Revision: 0
# Processed by: cddbd v1.4PL0 Copyright (c) Steve Scherf et al.
# Submitted via: CDex 1.50Beta5
#
DISCID=a20e040c
DTITLE=Les McCann - The Best Of Les McCann Ltd
DYEAR=1996
DGENRE=Jazz
TTITLE0=Fish This Week, But Next Week Chitlings
TTITLE1=The Truth
TTITLE2=For Carl Perkins
TTITLE3=Vakushna
TTITLE4=A Little 3/4 Time For God and Co.
TTITLE5=The Shout
TTITLE6=Doreen Don't Cry, I
TTITLE7=Big Jim
TTITLE8=Gone On And Get That Church
TTITLE9=Pretty Lady
TTITLE10=Someone Stole My Chitlins
TTITLE11=The Shampoo
EXTD=YEAR: 1996
EXTT0=
EXTT1=
EXTT2=
EXTT3=
EXTT4=
EXTT5=
EXTT6=
EXTT7=
EXTT8=
EXTT9=
EXTT10=
EXTT11=
PLAYORDER=
